Coordinates
version=1
nRows=34
nColumns=38
inDegrees=no

Units are S.I. units (second, meters, Newtons, ...)
If the header above contains a line with 'inDegrees', this indicates whether rotational values are in degrees (yes) or radians (no).

endheader
time	pelvis_tilt	pelvis_list	pelvis_rotation	pelvis_tx	pelvis_ty	pelvis_tz	hip_flexion_r	hip_adduction_r	hip_rotation_r	knee_angle_r	ankle_angle_r	subtalar_angle_r	mtp_angle_r	hip_flexion_l	hip_adduction_l	hip_rotation_l	knee_angle_l	ankle_angle_l	subtalar_angle_l	mtp_angle_l	lumbar_extension	lumbar_bending	lumbar_rotation	arm_flex_r	arm_add_r	arm_rot_r	elbow_flex_r	pro_sup_r	wrist_flex_r	wrist_dev_r	arm_flex_l	arm_add_l	arm_rot_l	elbow_flex_l	pro_sup_l	wrist_flex_l	wrist_dev_l
1.12	-1.58135	1.45018	3.06818	0.653632	0.570767	0.929223	0.16981	-0.22053	0.0333476	1.18264	-0.258798	0	0	0.480983	0.100808	-0.30588	0.538425	0.132275	0	0	-0.0516219	-0.22041	-0.0536469	-0.144776	-0.099037	0.0469965	0.306377	1.22753	0	0	-0.380124	-0.556268	0.580621	0.746718	0.559205	0	0
1.13	-1.57798	1.44493	3.06578	0.652054	0.583324	0.930327	0.204104	-0.220225	0.0491926	1.22884	-0.279919	0	0	0.468807	0.108055	-0.309722	0.541704	0.139128	0	0	-0.0476557	-0.226764	-0.0559572	-0.144524	-0.0981446	0.0155329	0.311183	1.2786	0	0	-0.383706	-0.560001	0.580391	0.747891	0.55845	0	0
1.14	-1.57554	1.44392	3.06536	0.649522	0.595326	0.931724	0.239508	-0.226264	0.0690292	1.26781	-0.261733	0	0	0.456838	0.116734	-0.30557	0.544175	0.145285	0	0	-0.0449581	-0.226481	-0.0598767	-0.146989	-0.104327	0.023509	0.325053	1.27091	0	0	-0.385235	-0.558555	0.575274	0.744577	0.561385	0	0
1.15	-1.57591	1.44207	3.06889	0.648928	0.607539	0.933751	0.26641	-0.208204	0.0738151	1.30571	-0.241963	0	0	0.44096	0.119974	-0.302568	0.542369	0.155319	0	0	-0.0422506	-0.230743	-0.0646217	-0.147964	-0.105899	0.0273228	0.334964	1.26574	0	0	-0.386092	-0.559599	0.569962	0.738449	0.561628	0	0
1.16	-1.58263	1.44429	3.08025	0.647427	0.619309	0.936104	0.293015	-0.19763	0.0814384	1.33213	-0.213231	0	0	0.423543	0.124333	-0.293838	0.538691	0.162916	0	0	-0.0416772	-0.228796	-0.0704837	-0.147162	-0.109142	0.0319399	0.341662	1.25831	0	0	-0.384654	-0.559005	0.566333	0.733247	0.561581	0	0
1.17	-1.59794	1.44719	3.10151	0.645868	0.630982	0.938866	0.316086	-0.187196	0.0859275	1.34963	-0.189553	0	0	0.401532	0.129763	-0.282341	0.528426	0.169525	0	0	-0.0429554	-0.225901	-0.0765495	-0.139536	-0.103831	-0.0267054	0.331778	1.33778	0	0	-0.381268	-0.556999	0.559372	0.726057	0.561389	0	0
1.18	-1.61805	1.45098	3.12839	0.644251	0.642587	0.941815	0.336602	-0.176815	0.0880993	1.35938	-0.171667	0	0	0.376248	0.134759	-0.270607	0.513116	0.175588	0	0	-0.0445195	-0.221795	-0.0841759	-0.135992	-0.106391	-0.0227101	0.33208	1.33129	0	0	-0.378673	-0.554678	0.55127	0.721118	0.559167	0	0
1.19	-1.63841	1.45515	-3.12698	0.642583	0.654139	0.944819	0.355471	-0.167454	0.0881222	1.36256	-0.15724	0	0	0.349102	0.139264	-0.25905	0.493965	0.180643	0	0	-0.0460425	-0.21695	-0.0921839	-0.131268	-0.108931	-0.016525	0.328956	1.32224	0	0	-0.376123	-0.552128	0.541693	0.718298	0.556304	0	0
1.2	-1.65568	1.45995	-3.10164	0.640868	0.665595	0.947753	0.373607	-0.158679	0.0865203	1.36032	-0.144302	0	0	0.321788	0.142671	-0.247429	0.472985	0.184108	0	0	-0.047088	-0.211098	-0.100052	-0.126084	-0.111509	-0.00892489	0.323291	1.31035	0	0	-0.372962	-0.549708	0.532396	0.716749	0.554677	0	0
1.21	-1.67601	1.46544	-3.07195	0.639049	0.67695	0.950617	0.390028	-0.15092	0.0821061	1.3529	-0.130977	0	0	0.294075	0.145122	-0.234208	0.450802	0.18599	0	0	-0.048635	-0.204223	-0.108623	-0.120699	-0.114171	-0.000414131	0.316248	1.29642	0	0	-0.369472	-0.547326	0.521933	0.716836	0.553701	0	0
1.22	-1.69262	1.47228	-3.0448	0.637169	0.688182	0.953272	0.405584	-0.14293	0.0752601	1.34097	-0.115522	0	0	0.268522	0.144951	-0.22171	0.431311	0.187981	0	0	-0.0497955	-0.195771	-0.117503	-0.116339	-0.116877	0.00635687	0.310605	1.28483	0	0	-0.364751	-0.546091	0.515587	0.718092	0.553119	0	0
1.23	-1.71126	1.48	-3.01454	0.63524	0.699267	0.955766	0.420236	-0.134975	0.0663911	1.32546	-0.0980016	0	0	0.244002	0.142888	-0.209703	0.413185	0.190098	0	0	-0.0512427	-0.186344	-0.127061	-0.112607	-0.119676	0.0136813	0.306131	1.27223	0	0	-0.359055	-0.545363	0.510793	0.720321	0.553099	0	0
1.24	-1.72705	1.48791	-2.98687	0.633339	0.710209	0.957987	0.435316	-0.128156	0.0563183	1.30704	-0.0807646	0	0	0.221368	0.139453	-0.199851	0.397228	0.192963	0	0	-0.052272	-0.176843	-0.136406	-0.109882	-0.122619	0.0220864	0.303479	1.25877	0	0	-0.352274	-0.545276	0.508112	0.723143	0.553974	0	0
1.25	-1.77749	1.49352	-2.92362	0.631264	0.721079	0.960292	0.446639	-0.125957	0.0445487	1.28461	-0.0650282	0	0	0.19298	0.139121	-0.184614	0.37451	0.192342	0	0	-0.0574894	-0.169008	-0.14632	-0.0997951	-0.117822	-0.0341801	0.285412	1.32727	0	0	-0.344293	-0.543301	0.498124	0.723296	0.57524	0	0
1.26	-1.82185	1.49825	-2.86639	0.629261	0.73189	0.962176	0.457875	-0.125461	0.0323651	1.25957	-0.0488433	0	0	0.166092	0.13857	-0.171866	0.353072	0.192686	0	0	-0.0614277	-0.162392	-0.156443	-0.09726	-0.120054	-0.0289046	0.283648	1.31831	0	0	-0.336202	-0.544005	0.496408	0.726248	0.581571	0	0
1.27	-1.86801	1.50179	-2.8075	0.627299	0.742652	0.963752	0.467654	-0.127014	0.0193641	1.23136	-0.0321237	0	0	0.138759	0.138748	-0.157901	0.33069	0.192583	0	0	-0.0655435	-0.156922	-0.166145	-0.09554	-0.122192	-0.0231259	0.283518	1.30859	0	0	-0.327345	-0.545081	0.496679	0.728424	0.588232	0	0
1.28	-1.90685	1.5044	-2.75618	0.625392	0.753374	0.964963	0.477566	-0.131185	0.00525982	1.201	-0.0159438	0	0	0.11199	0.139581	-0.143573	0.30782	0.191994	0	0	-0.0692507	-0.152566	-0.175323	-0.0945038	-0.124062	-0.0171564	0.284209	1.2978	0	0	-0.31799	-0.546375	0.498038	0.730493	0.594605	0	0
1.29	-1.93423	1.50535	-2.71641	0.623519	0.764131	0.965782	0.488122	-0.141998	-0.0145578	1.17028	-0.00120961	0	0	0.0858913	0.141901	-0.128451	0.285589	0.190696	0	0	-0.0726165	-0.150266	-0.184221	-0.0941255	-0.125694	-0.0107167	0.285557	1.28671	0	0	-0.308671	-0.548257	0.50033	0.733136	0.600344	0	0
1.3	-1.94986	1.50667	-2.6894	0.621844	0.774699	0.966262	0.498645	-0.151303	-0.0318637	1.13683	0.0108268	0	0	0.062526	0.143292	-0.114401	0.265987	0.189525	0	0	-0.0752597	-0.148057	-0.191861	-0.0935631	-0.127127	-0.00367201	0.287096	1.27503	0	0	-0.298362	-0.55004	0.503831	0.73503	0.60506	0	0
1.31	-1.9476	1.50867	-2.68135	0.620409	0.785089	0.966334	0.509838	-0.158651	-0.0464396	1.10139	0.0208301	0	0	0.0434316	0.143458	-0.103952	0.251141	0.189738	0	0	-0.0767086	-0.145939	-0.198148	-0.0930518	-0.128237	0.00393046	0.288918	1.26272	0	0	-0.287487	-0.551661	0.507852	0.736451	0.608314	0	0
1.32	-1.99249	1.50858	-2.62632	0.618948	0.795561	0.966544	0.515123	-0.168632	-0.0648971	1.06309	0.0307205	0	0	0.0174453	0.144827	-0.0846448	0.229949	0.186057	0	0	-0.0828693	-0.14404	-0.203213	-0.0851194	-0.12143	-0.0607362	0.275402	1.34082	0	0	-0.274152	-0.551163	0.508222	0.73357	0.630632	0	0
1.33	-2.01453	1.50949	-2.59633	0.617806	0.805984	0.966281	0.522065	-0.174246	-0.0774079	1.0235	0.0400503	0	0	-0.0029536	0.144383	-0.0721583	0.215939	0.18693	0	0	-0.0864282	-0.142277	-0.207106	-0.0838183	-0.121957	-0.055486	0.276489	1.33299	0	0	-0.261994	-0.551488	0.512185	0.733028	0.635387	0	0
1.34	-2.03797	1.51004	-2.5664	0.616853	0.816411	0.965808	0.528209	-0.178514	-0.087695	0.982502	0.0492899	0	0	-0.0224753	0.14381	-0.0604434	0.204049	0.188698	0	0	-0.0902582	-0.14085	-0.209559	-0.0821791	-0.122406	-0.0499262	0.277489	1.32518	0	0	-0.249252	-0.55164	0.517604	0.732162	0.639552	0	0
1.35	-2.06878	1.51023	-2.52998	0.616052	0.8268	0.965206	0.533231	-0.182211	-0.097996	0.940335	0.0576458	0	0	-0.0415175	0.142861	-0.0491523	0.194243	0.191579	0	0	-0.0949308	-0.139435	-0.211275	-0.0799246	-0.122621	-0.0446248	0.27805	1.3169	0	0	-0.236043	-0.551709	0.524572	0.73034	0.643599	0	0
1.36	-2.11006	1.50997	-2.48416	0.615406	0.837199	0.964502	0.536814	-0.185048	-0.108251	0.897523	0.0658886	0	0	-0.060755	0.141515	-0.0393456	0.185654	0.196182	0	0	-0.100547	-0.13791	-0.212071	-0.0772231	-0.122517	-0.0397413	0.278213	1.30789	0	0	-0.222657	-0.551326	0.53177	0.727737	0.647364	0	0
1.37	-2.15637	1.50928	-2.43468	0.614941	0.847624	0.963668	0.539398	-0.187166	-0.11874	0.854214	0.0746505	0	0	-0.0802266	0.139881	-0.0307216	0.17833	0.202069	0	0	-0.106702	-0.136412	-0.211796	-0.0742399	-0.121976	-0.0348369	0.278215	1.29838	0	0	-0.209472	-0.550553	0.539294	0.724435	0.650589	0	0
1.38	-2.20047	1.50847	-2.38872	0.614663	0.858161	0.962686	0.541188	-0.188687	-0.130031	0.810077	0.0839913	0	0	-0.099607	0.137918	-0.0243814	0.171246	0.208572	0	0	-0.112522	-0.135029	-0.210595	-0.0709202	-0.12115	-0.0292918	0.277583	1.2896	0	0	-0.196754	-0.549412	0.546773	0.721059	0.65339	0	0
1.39	-2.22552	1.50802	-2.36292	0.614555	0.868843	0.961454	0.54371	-0.189796	-0.141396	0.765981	0.0935202	0	0	-0.117115	0.136202	-0.0208703	0.165343	0.215694	0	0	-0.116688	-0.134341	-0.208806	-0.0679576	-0.119964	-0.0235604	0.277268	1.28204	0	0	-0.185843	-0.548378	0.553167	0.71898	0.65571	0	0
1.4	-2.29899	1.50598	-2.28993	0.614488	0.879774	0.960439	0.540771	-0.189095	-0.155271	0.719943	0.102542	0	0	-0.141386	0.133625	-0.0143256	0.15298	0.219683	0	0	-0.124234	-0.131822	-0.206305	-0.0650494	-0.119578	-0.0139359	0.278622	1.26622	0	0	-0.175411	-0.542635	0.547469	0.710289	0.697131	0	0
1.41	-2.35416	1.50746	-2.23796	0.614462	0.890106	0.959254	0.550675	-0.187675	-0.171066	0.69218	0.111067	0	0	-0.1579	0.129666	-0.0127784	0.146861	0.225723	0	0	-0.128991	-0.12699	-0.201151	-0.0604854	-0.119458	-0.00916624	0.279497	1.25784	0	0	-0.163153	-0.537969	0.55216	0.70555	0.705073	0	0
1.42	-2.39875	1.50739	-2.19447	0.614629	0.901194	0.957738	0.549913	-0.185623	-0.186542	0.647627	0.119605	0	0	-0.176187	0.126289	-0.0104797	0.140784	0.233266	0	0	-0.13293	-0.12453	-0.198619	-0.0580917	-0.117993	-0.00435692	0.280574	1.24796	0	0	-0.155478	-0.53586	0.555219	0.705687	0.713121	0	0
1.43	-2.45852	1.50696	-2.13618	0.614886	0.912516	0.956161	0.547205	-0.182203	-0.203227	0.602834	0.12841	0	0	-0.195869	0.122162	-0.00843256	0.1341	0.241196	0	0	-0.137264	-0.121243	-0.195986	-0.0560743	-0.116727	0.00193227	0.281938	1.23499	0	0	-0.149053	-0.5337	0.557438	0.706872	0.723003	0	0
1.44	-2.50462	1.5074	-2.09132	0.615249	0.924029	0.954378	0.545201	-0.178507	-0.221091	0.559204	0.138829	0	0	-0.213176	0.117943	-0.00753815	0.129715	0.250126	0	0	-0.140088	-0.11822	-0.192373	-0.0459631	-0.105949	-0.0808288	0.263958	1.3364	0	0	-0.141874	-0.534004	0.56829	0.711441	0.712454	0	0
1.45	-2.55696	1.5082	-2.04008	0.615648	0.935682	0.952486	0.5423	-0.173644	-0.23955	0.515615	0.149899	0	0	-0.229373	0.113039	-0.0071546	0.127268	0.259544	0	0	-0.14201	-0.114514	-0.191023	-0.0434177	-0.103456	-0.0819576	0.263179	1.33592	0	0	-0.138573	-0.532301	0.568972	0.715222	0.720713	0	0
